<svg width="479" height="351" viewBox="0 0 479 351" fill="none" xmlns="http://www.w3.org/2000/svg">
<path fill-rule="evenodd" clip-rule="evenodd" d="M52.6485 312.454C88.6834 351.679 228.032 329.148 319.787 329.148C359.371 329.148 492.207 348.987 437.353 212.739C257.496 -233.992 -61.5285 188.169 52.6485 312.454Z" fill="#E71096" fill-opacity="0.7"/>
<path fill-rule="evenodd" clip-rule="evenodd" d="M212.087 315.61C212.262 315.475 212.446 315.33 212.522 315.122C212.766 314.458 211.807 314.016 211.099 314.032C210.072 314.056 208.755 314.747 209.069 315.726C209.251 316.292 209.948 316.554 210.534 316.45C211.119 316.345 211.615 315.972 212.087 315.61ZM219.046 304.139C220.021 304.445 220.983 304.823 221.831 305.391C223.425 306.458 224.509 308.114 225.549 309.725C226.295 310.88 227.051 312.057 227.423 313.381C227.827 314.814 227.755 316.344 227.485 317.808C226.643 322.369 223.829 326.531 219.908 329.01C215.988 331.489 211.021 332.247 206.54 331.052C205.668 330.819 204.789 330.501 204.118 329.897C203.555 329.39 203.175 328.714 202.827 328.039C201.001 324.5 199.771 320.569 199.912 316.589C200.052 312.61 201.688 308.583 204.787 306.082C208.675 302.943 214.278 302.643 219.046 304.139" fill="white"/>
<path fill-rule="evenodd" clip-rule="evenodd" d="M378.957 131.636C377.256 131.615 375.661 133.041 375.493 134.733C375.424 135.425 375.717 136.285 376.406 136.38C376.922 136.452 377.374 136.053 377.721 135.664C378.455 134.842 379.085 133.928 379.592 132.95C379.762 132.621 379.912 132.2 379.688 131.906C379.525 131.691 379.226 131.64 378.957 131.636ZM380.936 124.173C383.97 125.231 386.72 127.093 388.83 129.517C390.643 131.601 392.024 134.305 391.643 137.04C391.503 138.045 391.132 139.002 390.71 139.924C389.109 143.414 386.357 146.76 382.577 147.436C380.594 147.79 378.55 147.365 376.643 146.716C374.437 145.966 372.334 144.914 370.412 143.598C369.392 142.9 368.379 142.071 367.932 140.919C367.624 140.125 367.615 139.251 367.626 138.399C367.655 136.293 367.794 134.151 368.529 132.177C369.458 129.679 371.276 127.617 373.203 125.777C373.979 125.037 374.801 124.308 375.796 123.911C377.425 123.262 379.281 123.595 380.936 124.173Z" fill="white"/>
<path fill-rule="evenodd" clip-rule="evenodd" d="M378.959 3.08895C388.952 13.3944 396.839 25.7174 402.002 39.0907C402.357 40.0092 402.701 41.0295 402.362 41.9541C399.758 49.0732 394.731 55.0083 389.802 60.7792C386.653 64.4668 383.503 68.1544 380.353 71.842C377.347 75.3624 374.34 78.8833 371.231 82.3151C355.406 99.7884 336.706 115.067 315.049 124.468C314.232 124.823 313.355 125.177 312.475 125.035C311.595 124.893 310.77 124.042 311 123.184C313.678 113.213 316.372 102.788 314.224 92.6905C313.706 90.2549 313.128 87.1883 315.148 85.7227C331.505 73.8569 343.281 56.8964 354.567 40.1662C357.405 35.9595 360.236 31.7411 362.747 27.3331C367.206 19.5067 370.639 11.1018 372.934 2.39804C373.249 1.20367 374.763 0.665842 375.962 0.978845C377.161 1.29185 378.098 2.20077 378.959 3.08895" fill="white"/>
<path fill-rule="evenodd" clip-rule="evenodd" d="M67.3202 43.1242C68.9448 57.8117 73.4667 72.173 80.5498 85.1419C84.9355 93.1717 90.2699 100.638 95.5901 108.081C99.2922 113.261 103.251 118.659 109.028 121.336C110.564 122.048 110.349 124.262 109.937 125.904C108.155 133.001 107.324 140.335 107.472 147.651C107.486 148.342 107.504 149.059 107.233 149.694C106.311 151.852 103.153 151.493 100.978 150.61C87.5247 145.149 77.1958 134.166 67.547 123.316C55.0195 109.229 42.6784 94.5229 35.2778 77.1846C34.7747 76.0059 34.2864 74.7654 34.3706 73.4865C34.4564 72.1835 35.1258 70.9991 35.8049 69.8837C42.5137 58.8646 51.847 49.4554 62.8113 42.6575C63.5835 42.1787 64.4081 41.6989 65.3162 41.6675C66.2243 41.6361 67.2203 42.2211 67.3202 43.1242Z" fill="white"/>
<path fill-rule="evenodd" clip-rule="evenodd" d="M376.998 300.783C378.157 298.818 379.594 296.655 381.845 296.282C382.732 296.135 383.2 295.171 383.502 294.324C387.222 283.889 387.581 272.284 384.512 261.64C383.636 258.601 384.714 255.38 385.782 252.403C388.535 244.721 391.289 237.04 394.043 229.358C392.465 226.629 388.305 226.709 386.174 224.387C383.431 221.398 385.5 216.646 387.648 213.205C400.2 193.104 412.752 173.003 425.303 152.901C426.841 150.439 430.216 149.667 433.044 150.323C435.872 150.979 438.288 152.759 440.614 154.497C449.768 161.334 458.922 168.171 468.077 175.009C472.99 178.679 478.414 183.366 478.131 189.492C477.974 192.882 476.034 195.895 474.158 198.722C466.903 209.655 459.648 220.587 452.393 231.519C448.306 237.678 449.435 245.767 448.199 253.055C446.248 264.57 438.351 274.026 431.039 283.134C423.727 292.241 416.411 302.41 416 314.082C415.51 327.994 408.901 341.58 398.259 350.554C401.346 343.065 381.845 346.052 359.537 337.177C363.208 324.19 370.139 312.404 376.998 300.783Z" fill="white"/>
<path fill-rule="evenodd" clip-rule="evenodd" d="M132.048 333.351C130.657 332.213 130.214 330.292 129.968 328.507C127.127 307.851 139.328 287.463 137.154 266.726C136.035 256.039 131.124 246.067 124.945 237.297C120.678 231.241 120.439 223.128 122.031 215.882C123.623 208.635 126.834 201.86 129 194.765C138.632 163.217 126.912 129.514 115.324 98.6365C138.415 87.4705 165.36 89.6332 190.94 91.146C216.521 92.6588 244.032 92.7659 265.352 78.48C268.274 109.385 261.831 140.323 255.424 170.692C287.934 167.525 320.443 164.358 352.953 161.191C353.886 161.1 354.905 161.03 355.68 161.559C356.713 162.265 356.872 163.706 356.931 164.96C358.451 197.1 359.372 229.268 359.694 261.443C359.702 262.25 359.674 263.149 359.108 263.722C358.624 264.212 357.884 264.314 357.201 264.39C311.654 269.466 266.106 274.542 220.559 279.618C216.621 280.056 211.01 279.031 211.241 275.055C212.269 257.327 211.669 239.503 209.45 221.886C197.345 221.428 185.158 223.274 173.726 227.297C171.132 228.209 168.013 230.663 169.412 233.04C178.667 248.768 167.18 272.407 179.75 285.609C184.072 290.148 183.773 297.289 182.916 303.512C181.08 316.852 177.961 330.013 173.617 342.752C175.717 328.089 133.332 341.214 132.048 333.351Z" fill="white"/>
<path fill-rule="evenodd" clip-rule="evenodd" d="M1.77115 0.493326C1.81006 0.806423 1.64065 1.13519 1.36309 1.28521C1.14204 1.06406 0.920998 0.842905 0.699951 0.621752C1.03133 0.476816 1.40715 0.435476 1.7621 0.504916L1.77115 0.493326Z" fill="#00160A"/>
<path fill-rule="evenodd" clip-rule="evenodd" d="M214.345 303.962C215.12 304.205 215.886 304.506 216.562 304.958C217.83 305.807 218.693 307.126 219.521 308.408C220.115 309.327 220.717 310.264 221.013 311.318C221.334 312.459 221.277 313.677 221.062 314.842C220.392 318.473 218.151 321.786 215.031 323.759C211.911 325.732 207.957 326.336 204.39 325.384C203.695 325.199 202.996 324.946 202.462 324.465C202.013 324.061 201.711 323.523 201.434 322.986C199.981 320.169 199.002 317.04 199.113 313.872C199.225 310.704 200.528 307.499 202.994 305.508C206.089 303.009 210.549 302.771 214.345 303.962M209.995 322.822C211.935 322.527 213.643 321.26 214.758 319.645C215.873 318.03 216.445 316.094 216.72 314.15C216.877 313.041 216.891 311.769 216.108 310.968C215.639 310.488 214.969 310.274 214.326 310.081C211.914 309.36 209.16 308.746 207 310.039C205.426 310.98 204.549 312.725 203.754 314.377C202.823 316.312 203.053 318.754 204.329 320.481C205.605 322.208 207.872 323.144 209.995 322.822V322.822Z" fill="#00160A"/>
<path fill-rule="evenodd" clip-rule="evenodd" d="M302.972 216.815C303.006 216.403 303.056 215.962 303.328 215.651C303.594 215.348 304.014 215.239 304.407 215.147C314.543 212.787 325.013 211.864 335.406 212.414C336.729 212.484 338.431 212.932 338.519 214.254C339.021 221.837 339.523 229.419 340.025 237.002C340.05 237.385 340.063 237.811 339.818 238.107C339.618 238.348 339.295 238.441 338.992 238.52C328.182 241.338 316.788 241.894 305.756 240.141C305.472 240.096 305.173 240.042 304.952 239.858C304.686 239.635 304.592 239.271 304.516 238.932C302.89 231.694 302.367 224.209 302.972 216.815ZM305.362 229.394C305.561 232.257 306.162 235.092 307.141 237.79C308.118 237.931 309.084 238.134 310.057 238.298C318.441 239.718 327.015 238.29 335.398 236.863C335.993 236.762 336.645 236.628 337.012 236.149C337.388 235.66 337.338 234.979 337.27 234.366C336.981 231.753 336.692 229.14 336.404 226.528C336.38 226.317 336.351 226.091 336.208 225.934C336.035 225.744 335.752 225.713 335.495 225.696C329.538 225.304 323.561 225.749 317.608 226.193C314.317 226.438 311.027 226.684 307.736 226.93C306.962 226.987 306.084 227.102 305.639 227.737C305.312 228.205 305.323 228.824 305.362 229.394ZM305.455 218.465C304.934 220.135 304.841 221.937 305.186 223.651C305.248 223.96 305.335 224.285 305.569 224.495C305.916 224.806 306.444 224.754 306.905 224.687C312.512 223.866 318.179 223.458 323.845 223.467C324.644 223.469 324.889 222.392 324.881 221.593C324.868 220.422 324.855 219.251 324.842 218.08C324.835 217.402 324.801 216.656 324.337 216.162C323.779 215.568 322.848 215.586 322.036 215.648C320.159 215.792 318.281 215.935 316.404 216.079C315.506 216.147 313.125 216.757 312.03 216.829C310.124 217.133 308.219 217.437 306.313 217.741C306.11 217.774 305.895 217.811 305.739 217.945C305.586 218.075 305.515 218.274 305.455 218.465ZM330.59 223.56C332.08 223.579 333.571 223.43 335.028 223.117C335.375 223.042 335.739 222.947 335.986 222.693C336.35 222.32 336.346 221.734 336.32 221.214C336.243 219.704 336.166 218.194 336.088 216.684C336.061 216.146 336 215.539 335.579 215.202C335.209 214.906 334.686 214.923 334.213 214.956C332.556 215.068 330.9 215.181 329.243 215.294C328.981 215.312 328.705 215.334 328.486 215.479C328.085 215.744 328.025 216.299 328.014 216.78C327.977 218.38 328.042 219.983 328.209 221.575C328.258 222.036 328.325 222.522 328.61 222.887C329.054 223.456 329.868 223.551 330.59 223.56Z" fill="#868686"/>
<path fill-rule="evenodd" clip-rule="evenodd" d="M328.914 183.679C331.128 182.721 333.845 183.042 335.775 184.489C337.705 185.937 338.774 188.456 338.473 190.85C339.83 190.117 341.551 189.394 342.817 190.275C344.246 191.27 343.92 193.412 343.705 195.14C343.33 198.16 343.817 201.282 345.093 204.044C345.62 205.185 346.073 206.916 344.904 207.377C344.706 207.454 344.491 207.472 344.279 207.489C330.564 208.595 316.85 209.7 303.135 210.805C302.759 210.836 302.337 210.852 302.053 210.604C301.763 210.351 301.726 209.921 301.71 209.536C301.579 206.31 301.447 203.084 301.316 199.858C301.281 198.993 301.264 198.06 301.753 197.345C302.561 196.162 304.256 196.165 305.671 195.939C307.086 195.712 308.733 194.518 308.188 193.192C307.581 191.714 309.65 190.634 311.23 190.394C312.81 190.153 314.905 189.212 314.427 187.687C313.904 186.022 316.196 184.988 317.926 184.758C319.147 184.596 320.424 184.439 321.582 184.858C322.74 185.277 323.719 186.47 323.458 187.673C323.159 189.051 324.838 190.335 326.161 189.848C327.484 189.362 328.021 187.553 327.351 186.312C326.804 185.299 327.857 184.136 328.914 183.679ZM335.996 204.937C335.483 203.987 335.48 202.854 335.475 201.774C335.453 196.7 335.141 191.627 334.542 186.589C334.512 186.334 334.463 186.05 334.255 185.901C334.076 185.773 333.834 185.788 333.615 185.808C332.543 185.909 331.274 186.145 330.85 187.135C330.67 187.557 330.691 188.034 330.715 188.492C330.987 193.578 331.259 198.663 331.53 203.748C331.556 204.222 331.619 204.766 332.012 205.03C332.227 205.174 332.497 205.201 332.755 205.215C333.841 205.275 334.936 205.181 335.996 204.937ZM317.55 197.118C317.417 197.966 317.23 198.807 317.18 199.663C317.097 201.094 317.398 202.516 317.698 203.917C317.89 204.816 319.052 205.258 319.903 204.912C320.754 204.565 321.268 203.657 321.41 202.749C321.551 201.841 321.385 200.917 321.241 200.01C320.672 196.445 320.426 192.828 320.506 189.219C320.527 188.306 319.636 187.481 318.727 187.571C317.818 187.661 317.106 188.645 317.306 189.536C317.86 192.019 317.944 194.606 317.55 197.118ZM326.57 192.248C326.035 191.548 324.809 191.921 324.392 192.697C323.975 193.473 324.102 194.414 324.206 195.289C324.476 197.575 324.502 199.889 324.283 202.179C324.218 202.855 324.146 203.592 324.519 204.159C325.093 205.03 326.351 205.023 327.389 204.917C327.715 204.884 328.089 204.821 328.253 204.538C328.366 204.341 328.34 204.096 328.309 203.87C327.83 200.316 327.352 196.762 326.873 193.208C326.828 192.872 326.776 192.518 326.57 192.248ZM338.449 193.776C338.046 194.325 337.962 195.04 337.927 195.72C337.807 198.053 338.116 200.384 338.424 202.7C338.546 203.612 338.963 204.785 339.881 204.722C340.812 204.659 341.055 203.415 341.033 202.482C340.976 200.012 340.918 197.543 340.861 195.073C340.846 194.424 340.778 193.671 340.239 193.309C339.673 192.929 338.852 193.226 338.449 193.776ZM310.337 193.192C310.337 193.192 310.746 196.415 310.889 198.058C311.068 200.119 311.296 202.177 311.572 204.228C311.613 204.525 311.666 204.848 311.886 205.053C312.267 205.408 313.736 205.172 314.007 204.727C314.278 204.282 314.263 203.726 314.239 203.206C314.165 201.56 314.09 199.913 314.015 198.267C313.935 196.502 313.516 192.697 313.516 192.697M305.007 204.863C305.124 205.232 305.263 205.619 305.562 205.866C306.144 206.348 307.089 206.049 307.548 205.449C308.008 204.848 308.111 204.057 308.199 203.306C308.307 202.384 308.411 201.426 308.112 200.548C307.814 199.669 306.988 198.896 306.064 198.978C305.214 199.053 304.555 199.83 304.357 200.66C304.159 201.49 304.326 202.36 304.532 203.188C304.672 203.751 304.831 204.31 305.007 204.863Z" fill="#E7EAEE"/>
<path fill-rule="evenodd" clip-rule="evenodd" d="M363.513 75.9746C362.122 78.0627 360.613 80.1779 358.461 81.4672C356.308 82.7564 353.337 83.0076 351.403 81.4092C349.269 79.6458 349.137 76.4669 349.306 73.7039C349.371 72.6401 349.456 71.5678 349.761 70.5466C350.289 68.7754 351.444 67.2638 352.649 65.8622C354.111 64.1619 355.73 62.5217 357.758 61.5648C359.786 60.6079 362.306 60.4399 364.207 61.6304C366.481 63.0555 367.323 66.0869 366.892 68.7362C366.461 71.3855 365.001 73.7408 363.513 75.9746M359.095 78.1838C360.849 76.3154 362.353 74.213 363.556 71.9498C364.347 70.4604 365.02 68.8416 364.989 67.1554C364.957 65.4693 364.068 63.7068 362.502 63.0811C360.462 62.2661 358.223 63.5698 356.518 64.955C355.304 65.9411 354.129 67.0229 353.351 68.379C352.858 69.2366 352.538 70.1802 352.222 71.1169C351.622 72.8888 351.014 74.7352 351.243 76.5918C351.471 78.4485 352.799 80.3124 354.66 80.5048C356.382 80.6828 357.91 79.446 359.095 78.1838Z" fill="#868686"/>
<path fill-rule="evenodd" clip-rule="evenodd" d="M78.487 92.5362C80.6662 94.7435 82.4651 97.3254 83.781 100.134C85.1035 102.957 83.7701 106.585 81.1747 108.312C78.5794 110.039 75.0703 110.017 72.2245 108.744C69.3787 107.471 67.1423 105.096 65.4952 102.449C64.2535 100.454 63.2907 98.2173 63.1875 95.8693C63.0842 93.5213 63.9487 91.0502 65.8062 89.6103C67.6849 88.154 70.3266 87.9459 72.5986 88.6448C74.8706 89.3436 76.817 90.8446 78.487 92.5362M69.9842 91.1938C68.0986 90.9997 66.4236 92.7303 66.1001 94.5981C65.7767 96.4659 66.4887 98.3609 67.41 100.018C69.4078 103.61 72.9725 106.801 77.0781 106.602C79.1887 106.5 81.502 105.038 81.4645 102.925C81.4483 102.012 80.9976 101.169 80.5475 100.374C79.3517 98.2611 78.0601 96.1704 76.3351 94.4625C74.6102 92.7547 72.3988 91.4424 69.9842 91.1938Z" fill="#868686"/>
<path fill-rule="evenodd" clip-rule="evenodd" d="M206.524 312.865C207.729 311.949 209.228 311.357 210.738 311.454C212.248 311.551 213.743 312.418 214.374 313.793C215.052 315.269 214.63 317.102 213.572 318.335C212.514 319.567 210.92 320.248 209.312 320.472C208.214 320.626 206.906 320.488 206.305 319.557C206.015 319.107 205.949 318.554 205.891 318.022C205.786 317.068 205.681 316.114 205.576 315.159C205.532 314.755 205.489 314.335 205.619 313.95C205.772 313.497 206.143 313.154 206.524 312.865M211.291 315.61C211.466 315.475 211.65 315.329 211.726 315.122C211.97 314.458 211.011 314.016 210.303 314.032C209.276 314.055 207.959 314.747 208.273 315.726C208.455 316.292 209.152 316.554 209.738 316.449C210.323 316.345 210.819 315.972 211.291 315.61H211.291Z" fill="#00160A"/>
<path fill-rule="evenodd" clip-rule="evenodd" d="M393.572 8.27096C405.366 20.4803 414.675 35.0798 420.769 50.9238C421.187 52.012 421.593 53.2208 421.194 54.3162C418.12 62.7505 412.187 69.782 406.369 76.6191L395.218 89.7257C391.669 93.8964 388.12 98.0678 384.451 102.134C365.773 122.835 343.703 140.937 318.141 152.074C317.177 152.495 316.142 152.914 315.103 152.746C314.064 152.578 313.091 151.569 313.363 150.553C316.523 138.74 319.703 126.389 317.168 114.426C316.556 111.54 315.874 107.907 318.258 106.171C337.564 92.1129 351.463 72.019 364.783 52.198C368.133 47.2141 371.473 42.2164 374.437 36.994C379.7 27.7218 383.753 17.7641 386.461 7.45242C386.833 6.03739 388.619 5.4002 390.034 5.77103C391.45 6.14186 392.555 7.2187 393.572 8.27096ZM385.318 23.4329C384.119 22.9372 383.014 24.2778 382.403 25.4221C381.743 26.6599 381.083 27.8996 380.422 29.1403L380.421 29.1429C368.201 52.0961 355.794 75.4015 337.172 93.4805C335.413 95.1886 333.446 97.2522 333.77 99.6829C334.81 107.474 330.65 115.702 323.759 119.485C320.631 121.203 320.668 125.634 321.126 129.173C321.31 130.59 321.845 132.366 323.269 132.486C327.445 132.838 331.452 134.894 334.174 138.08C335.033 139.085 336.661 138.457 337.78 137.753C365.951 120.043 387.597 93.8834 408.731 68.1809C409.46 67.2942 410.236 66.177 409.856 65.0938C406.658 55.9835 407.17 45.6301 411.253 36.8803C408.844 32.0872 405.973 27.5265 402.693 23.2818C397.235 25.6513 390.816 25.7071 385.318 23.4329ZM318.498 147.396C319.609 147.978 320.954 147.424 322.066 146.844C324.988 145.319 327.802 143.588 330.481 141.668C331.189 141.16 331.4 140.147 331.15 139.313C330.9 138.478 330.273 137.806 329.579 137.279C327.413 135.635 324.385 135.203 321.845 136.175C321.376 136.354 320.91 136.589 320.587 136.973C320.208 137.423 320.07 138.023 319.948 138.598C319.334 141.507 318.85 144.444 318.498 147.396ZM397.61 17.3665C395.696 13.6237 392.744 10.4186 389.171 8.20365C387.928 9.29928 387.686 10.9641 387.44 12.6614C387.271 13.826 387.1 15.006 386.601 16.0277C386.439 16.3602 386.241 16.6782 386.043 16.9955L386.043 16.9957L386.042 16.996L386.042 16.9964C385.665 17.601 385.29 18.2031 385.168 18.8974C384.984 19.9565 385.88 21.2852 386.897 20.9348C387.723 20.6499 388.589 20.8329 389.463 21.0175C389.924 21.1149 390.387 21.2127 390.847 21.2425C393.53 21.4156 395.756 19.3137 397.61 17.3665ZM412.781 39.7992C410.731 43.878 411.055 48.6954 411.428 53.2454L411.963 59.7706C412.022 60.4882 412.412 61.4565 413.104 61.2578C413.533 60.0558 414.351 59.0643 415.172 58.07C415.889 57.2004 416.608 56.3288 417.07 55.3126C418.636 51.8711 416.898 47.9049 415.186 44.5339L412.781 39.7992ZM320.99 112.222C321.076 113.499 322.402 114.454 323.68 114.418C324.959 114.382 326.11 113.555 326.857 112.516C327.605 111.478 328.014 110.241 328.414 109.026L329.732 105.013C330.1 103.894 330.122 102.183 328.952 102.052C328.53 102.004 328.126 102.228 327.78 102.474C326.468 103.406 325.513 104.746 324.583 106.059L322.05 109.638C321.501 110.414 320.927 111.274 320.99 112.222ZM90.7951 93.1C81.8967 76.8075 76.216 58.7656 74.1749 40.314C74.0494 39.1794 72.7983 38.4445 71.6574 38.4839C70.5166 38.5234 69.4807 39.1262 68.5105 39.7277C54.7362 48.2678 43.0111 60.0884 34.5829 73.9315C33.7298 75.3327 32.8887 76.8207 32.781 78.4576C32.6753 80.0642 33.2887 81.6226 33.9207 83.1034C43.2179 104.885 58.7218 123.36 74.4599 141.057C86.5815 154.688 99.5575 168.486 116.459 175.347C119.19 176.456 123.158 176.907 124.316 174.196C124.653 173.407 124.635 172.52 124.618 171.662L124.617 171.629C124.431 162.439 125.475 153.224 127.714 144.308C128.232 142.246 128.501 139.464 126.571 138.57C119.314 135.207 114.341 128.425 109.69 121.918C103.006 112.567 96.3047 103.188 90.7951 93.1ZM106.504 164.318C105.504 164.584 104.506 163.954 103.671 163.342C88.2888 152.072 76.3681 136.818 64.6558 121.769L43.9867 95.2115C47.4755 92.9896 47.9185 88.1618 47.9945 84.0262C48.0934 78.6504 48.1656 73.1157 46.2236 68.102C45.792 66.9876 46.3539 65.7527 46.9557 64.7202C49.5364 60.292 53.1155 56.4494 57.3494 53.561C57.7593 53.2814 58.1932 53.0036 58.6845 52.9342C59.9811 52.751 60.9758 54.012 61.6687 55.1231C64.4052 59.5114 68.1661 64.4741 73.3251 64.1128C75.2895 63.9752 76.3788 66.2891 76.9519 68.173C84.0781 91.6009 97.458 112.732 113.149 131.532C115.188 133.975 115.699 137.273 116.206 140.54C116.771 144.183 117.331 147.79 119.996 150.132C122.272 152.133 121.85 155.725 121.236 158.692C121.11 159.299 120.96 159.949 120.499 160.363C120.157 160.671 119.694 160.799 119.249 160.918L106.504 164.318ZM70.0368 58.6859C67.215 56.7142 64.7775 54.1946 62.9002 51.3091C62.4942 50.685 62.0997 49.9854 62.1711 49.2442C62.2486 48.4383 62.8549 47.7934 63.4583 47.2534C64.9481 45.92 66.632 44.8037 68.4402 43.9507C69.1024 43.6383 69.9574 43.3845 70.5075 43.8677C70.8314 44.1522 70.9337 44.6067 71.0182 45.0295L73.6245 58.0646C73.7786 58.8352 72.9703 59.5292 72.1848 59.5516C71.3992 59.574 70.681 59.136 70.0368 58.6859ZM44.2445 83.898C44.1892 86.3498 44.0019 89.1015 42.1645 90.7257C41.7799 90.7714 41.5245 90.3494 41.3738 89.9927C40.0499 86.8587 38.7077 83.6493 38.4992 80.2536C38.2908 76.8579 39.4288 73.1808 42.2036 71.2125C42.5791 70.9461 43.1298 70.7262 43.4613 71.0457C43.5945 71.1741 43.6514 71.3605 43.7 71.539C44.454 74.3106 44.3947 77.2295 44.33 80.1012L44.2445 83.898ZM119.125 165.453C119.571 165.818 119.618 166.47 119.63 167.046L119.763 173.348C117.177 171.915 114.701 170.286 112.36 168.48C111.917 168.138 111.429 167.583 111.701 167.093C111.836 166.85 112.116 166.733 112.377 166.637C114.049 166.02 115.779 165.557 117.536 165.256C118.08 165.163 118.698 165.104 119.125 165.453ZM119.274 140.629C119.25 140.344 119.25 140.034 119.419 139.804C119.866 139.197 120.835 139.747 121.244 140.379C122.23 141.902 122.448 143.897 121.814 145.597C120.365 144.355 119.432 142.53 119.274 140.629ZM408.148 81.6997C410.199 79.1167 413.938 78.745 417.235 78.8256C418.006 78.8444 418.799 78.8816 419.5 79.2013C421.451 80.0903 421.865 82.6394 421.931 84.7822C421.991 86.7319 421.98 88.7071 421.506 90.5993C421.032 92.4915 420.052 94.3145 418.485 95.4758C417.78 95.9977 416.963 96.3781 416.098 96.5229C414.762 96.7467 413.394 96.4034 412.125 95.9309C410.432 95.3011 408.827 94.4362 407.371 93.3689C406.659 92.8476 405.924 92.1649 405.901 91.283C405.848 89.2495 406.076 87.2088 406.576 85.2368C406.895 83.9766 407.34 82.718 408.148 81.6997ZM413.467 94.5646C416.1 95.3206 418.902 93.2832 419.899 90.7316C420.897 88.18 420.528 85.314 419.98 82.6297C419.769 81.5991 418.668 81.0235 417.653 80.7479C416.081 80.3214 414.41 80.2648 412.813 80.5841C412.02 80.7428 411.209 81.0145 410.652 81.6017C410.349 81.9216 410.139 82.3167 409.933 82.7064L408.39 85.6222C408.119 86.1351 407.846 86.6525 407.686 87.2103C407.209 88.8787 407.839 90.7313 409.004 92.0174C410.169 93.3034 411.799 94.0858 413.467 94.5646ZM378.22 124.047C380.635 124.89 382.824 126.372 384.503 128.301C385.947 129.959 387.046 132.112 386.742 134.29C386.631 135.089 386.336 135.851 386 136.585C384.726 139.363 382.535 142.026 379.526 142.564C377.948 142.846 376.32 142.508 374.803 141.992C373.047 141.394 371.373 140.557 369.843 139.509C369.031 138.954 368.225 138.294 367.869 137.377C367.624 136.745 367.616 136.049 367.625 135.371C367.648 133.695 367.759 131.99 368.344 130.418C369.083 128.43 370.53 126.789 372.065 125.324C372.682 124.735 373.336 124.154 374.129 123.839C375.426 123.322 376.902 123.587 378.22 124.047ZM380.689 138.66C382.435 136.933 383.45 134.43 383.174 131.99C382.897 129.551 381.246 127.261 378.936 126.428C377.977 126.082 376.912 125.986 375.929 126.258C375.399 126.405 374.901 126.655 374.437 126.95C372.449 128.214 371.053 130.371 370.714 132.702C370.376 135.034 371.099 137.499 372.645 139.276C373.635 140.415 375.25 140.903 376.747 140.714C378.244 140.525 379.617 139.721 380.689 138.66ZM160.286 109.666C160.205 108.515 158.667 108.214 157.514 108.248C151.463 108.426 145.419 108.879 139.409 109.606C138.422 109.725 138.342 111.317 139.134 111.918C139.926 112.52 141.03 112.408 142.015 112.268L160.286 109.666ZM140.941 117.444C140.993 116.851 141.737 116.637 142.328 116.57L177.972 112.534C178.616 112.461 179.303 112.395 179.883 112.685C180.463 112.975 180.837 113.769 180.458 114.296C180.179 114.684 179.644 114.763 179.167 114.809L142.711 118.347C141.953 118.421 140.874 118.203 140.941 117.444ZM220.848 123.448C218.853 123.886 216.807 123.166 214.894 122.451C208.71 120.14 202.55 117.765 196.415 115.327C193.939 114.343 191.221 115.817 188.994 117.28C182.548 121.514 176.342 126.114 170.416 131.049C168.894 132.316 166.551 131.427 165.016 130.175C164.691 129.91 164.372 129.628 164.051 129.345L164.051 129.345C162.855 128.288 161.644 127.217 160.098 126.998C157.72 126.661 155.628 128.463 153.906 130.136L142.796 140.926C141.302 142.377 139.729 144.701 141.059 146.304C141.936 147.361 143.547 147.307 144.912 147.149C152.039 146.323 159.132 145.164 166.221 144.006L166.222 144.006C177.939 142.092 189.65 140.179 201.502 139.769C204.128 139.679 206.756 139.662 209.384 139.645C211.03 139.635 212.675 139.624 214.321 139.595C221.742 139.466 229.156 138.966 236.527 138.098C236.884 138.056 237.29 137.982 237.475 137.675C237.614 137.442 237.579 137.149 237.54 136.881L234.418 115.637C234.259 114.558 233.982 113.31 232.995 112.844C231.999 112.373 230.825 112.98 230.007 113.719C228.726 114.875 227.74 116.411 226.768 117.926C225.172 120.411 223.612 122.84 220.848 123.448ZM170.144 135.072C176.812 129.589 183.765 124.453 190.965 119.69C192.444 118.712 194.241 117.711 195.893 118.353L213.353 125.138C216.267 126.27 219.454 127.417 222.446 126.509C225.923 125.454 228.002 121.994 229.753 118.809C230.094 118.19 231.085 118.261 231.575 118.77C232.066 119.279 232.19 120.028 232.291 120.727L233.569 129.587C233.765 130.947 233.958 132.359 233.565 133.676C233.172 134.993 232.017 136.189 230.643 136.162C208.168 135.728 185.65 137.581 163.549 141.684C162.864 141.811 162.18 141.94 161.494 142.07C156.215 143.067 150.915 144.067 145.55 144.085C148.141 140.415 151.424 137.298 154.684 134.207C156.474 132.51 158.712 130.68 161.115 131.235C162.413 131.535 163.409 132.467 164.399 133.395L164.399 133.395L164.4 133.396C164.717 133.693 165.034 133.99 165.36 134.265C166.704 135.4 168.785 136.189 170.144 135.072ZM458.474 196.872C457.879 197.094 457.213 196.942 456.606 196.751C452.497 195.46 449.159 192.57 445.879 189.731L445.879 189.731C445.434 189.346 444.991 188.962 444.547 188.584C439.112 183.948 433.214 179.855 426.968 176.386C426.333 176.033 425.667 175.662 425.278 175.048C424.888 174.434 424.9 173.5 425.5 173.09C428.301 171.178 430.117 167.897 430.25 164.508C430.286 163.605 431.306 163.003 432.207 163.076C433.108 163.148 433.893 163.689 434.63 164.212L463.167 184.47C463.723 184.864 464.321 185.321 464.457 185.989C464.568 186.534 464.34 187.085 464.111 187.591C462.88 190.307 461.464 192.939 459.877 195.463C459.518 196.035 459.107 196.636 458.474 196.872ZM429.924 172.841C429.589 173.432 429.298 174.288 429.842 174.697L453.129 192.231C454.405 193.192 456.387 194.092 457.391 192.851C458.544 191.426 459.621 189.939 460.616 188.399C460.888 187.978 461.166 187.497 461.067 187.005C460.978 186.556 460.6 186.23 460.245 185.941C451.698 179.012 442.649 172.702 433.193 167.077L429.924 172.841ZM418.335 183.563C418.711 182.918 419.167 182.212 419.897 182.054C420.455 181.933 421.023 182.172 421.537 182.422C424.341 183.783 426.909 185.629 429.094 187.853C429.62 188.388 429.685 189.249 429.451 189.961C429.217 190.674 428.735 191.274 428.262 191.856C427.502 192.792 426.693 193.766 425.572 194.21C424.362 194.689 422.955 194.458 421.809 193.841C420.663 193.224 419.744 192.259 418.933 191.241C417.876 189.913 416.93 188.32 417.094 186.631C417.201 185.524 417.775 184.524 418.335 183.563ZM423.239 190.998C425.003 191.684 426.131 191.14 426.177 189.984C426.207 189.254 425.57 188.692 424.991 188.247L423.239 186.899C422.66 186.454 422.022 185.988 421.292 185.992C420.561 185.997 419.818 186.75 420.117 187.417C420.072 187.738 421.476 190.312 423.239 190.998ZM416.278 205.235C416.708 205.471 417.164 205.701 417.655 205.711C418.145 205.722 418.676 205.444 418.796 204.969C419.079 203.853 419.817 202.928 420.54 202.023L420.649 201.887C420.691 201.833 420.733 201.78 420.776 201.727C421.567 200.725 422.33 199.59 422.352 198.314C422.373 197.038 421.316 195.677 420.051 195.851C419.055 195.989 418.128 195.336 417.404 194.637C417.289 194.525 417.175 194.411 417.06 194.297C416.454 193.693 415.839 193.079 415.035 192.817C414.078 192.505 412.776 193.001 412.7 194.004C412.547 196.024 410.868 197.545 409.311 198.84C408.845 199.228 409.266 199.972 409.702 200.393C411.665 202.291 413.883 203.924 416.278 205.235ZM416.59 201.386L413.522 199.311C412.742 198.784 412.805 197.492 413.5 196.857C414.196 196.222 415.276 196.173 416.163 196.491C417.049 196.809 417.786 197.432 418.503 198.043C418.977 198.448 419.042 199.185 418.825 199.769C418.608 200.353 418.167 200.821 417.736 201.272C417.589 201.426 417.424 201.59 417.213 201.617C416.988 201.646 416.777 201.513 416.59 201.386ZM440.905 201.523L442.405 198.337C442.864 197.361 443.309 196.153 442.689 195.271C442.474 194.965 442.156 194.749 441.846 194.539L436.39 190.862C435.801 190.466 435.163 190.054 434.454 190.065C433.613 190.078 432.908 190.678 432.311 191.27C431.417 192.157 430.581 193.102 429.81 194.098C429.223 194.856 428.742 196.104 429.543 196.63L437.893 202.108C438.552 202.54 439.388 202.984 440.08 202.608C440.487 202.387 440.708 201.942 440.905 201.523ZM439.055 199.267C438.704 199.348 438.338 199.259 437.994 199.155C435.886 198.52 433.956 197.303 432.474 195.675C431.981 195.134 432.26 194.177 432.887 193.798C433.513 193.418 434.327 193.506 435.002 193.789C435.438 193.972 435.837 194.227 436.237 194.483C436.456 194.623 436.675 194.763 436.9 194.891C437.143 195.029 437.395 195.156 437.648 195.282C438.366 195.642 439.084 196.002 439.574 196.624C440.235 197.466 440.099 199.027 439.055 199.267ZM441.875 202.826C442.837 202.598 443.131 201.617 443.437 200.597C443.689 199.754 443.95 198.885 444.602 198.392C445.725 197.543 447.314 198.253 448.524 198.972L452.37 201.26C452.983 201.625 453.611 202.002 454.05 202.564C454.49 203.125 454.706 203.921 454.398 204.564C454.193 204.994 453.805 205.279 453.414 205.566C453.094 205.801 452.771 206.038 452.546 206.356C452.257 206.766 452.149 207.28 452.043 207.787C451.91 208.424 451.778 209.051 451.292 209.451C450.407 210.181 449.09 209.596 448.112 208.998L442.693 205.687C442.146 205.353 441.57 204.986 441.301 204.405C441.033 203.823 441.252 202.975 441.875 202.826ZM448.979 206.115C449.755 205.85 450.379 205.274 450.977 204.714C451.411 204.308 450.831 203.64 450.313 203.348L446.993 201.479C446.647 201.284 446.165 201.106 445.896 201.399C445.031 202.343 444.906 203.883 445.606 204.954C446.307 206.025 447.768 206.528 448.979 206.115ZM410.888 205.999C410.145 205.789 409.388 205.576 408.781 205.162C407.838 204.519 406.526 204.675 405.537 205.243C404.547 205.811 403.81 206.722 403.096 207.612C402.699 208.106 402.293 208.621 402.141 209.236C401.99 209.85 402.17 210.595 402.723 210.904L408.513 214.131C408.951 214.375 409.441 214.628 409.931 214.519C410.419 214.411 410.755 213.977 411.049 213.573L412.539 211.524C413.368 210.383 414.234 208.928 413.628 207.655C413.142 206.634 412.031 206.321 410.888 205.999ZM409.055 211.308C408.753 211.388 408.441 211.242 408.162 211.1L404.218 209.092C404.976 208.019 406.419 207.608 407.726 207.737C409.034 207.867 410.248 208.449 411.431 209.021L409.618 210.903C409.456 211.072 409.282 211.248 409.055 211.308ZM381.731 131.045C382.342 131.976 382.151 133.22 381.746 134.257C381.212 135.624 380.309 136.891 379.035 137.618C377.76 138.345 376.086 138.452 374.844 137.67C373.602 136.888 372.978 135.15 373.643 133.842C373.797 133.54 374.007 133.272 374.217 133.004C374.418 132.747 374.62 132.491 374.772 132.204C374.872 132.015 374.95 131.815 375.027 131.614C375.14 131.326 375.252 131.038 375.43 130.786C376.062 129.891 377.307 129.715 378.403 129.73C379.646 129.748 381.05 130.005 381.731 131.045ZM378.956 131.636C377.256 131.615 375.661 133.041 375.492 134.733C375.423 135.425 375.717 136.285 376.405 136.38C376.921 136.452 377.374 136.053 377.721 135.664C378.454 134.842 379.084 133.928 379.591 132.95C379.762 132.621 379.912 132.2 379.688 131.906C379.525 131.691 379.226 131.64 378.956 131.636ZM419.632 87.2801C419.501 85.7228 418.459 84.1912 416.946 83.801C415.023 83.3055 413.16 84.6589 411.634 85.9286C411.183 86.3042 410.711 86.7081 410.52 87.2633C410.196 88.2054 410.78 89.1982 411.354 90.0121C412.013 90.9442 412.716 91.8811 413.676 92.4972C414.637 93.1132 415.917 93.3524 416.925 92.8171C417.439 92.5442 417.838 92.0985 418.186 91.6319C419.119 90.3782 419.763 88.8373 419.632 87.2801ZM415.369 91.2724C414.717 91.3701 414.042 91.107 413.562 90.6554C412.844 89.9788 412.559 88.8912 412.81 87.9368C413.074 86.9319 413.917 86.1018 414.926 85.854C415.936 85.6061 417.068 85.9508 417.767 86.7188C417.741 86.9282 417.719 87.1388 417.698 87.3495L417.697 87.35C417.623 88.066 417.549 88.7832 417.301 89.4558C416.98 90.3265 416.286 91.1348 415.369 91.2724ZM363.626 334.183C367.171 321.644 373.862 310.264 380.485 299.043C381.604 297.146 382.992 295.058 385.165 294.698C386.021 294.556 386.473 293.625 386.765 292.807C390.357 282.732 390.703 271.528 387.74 261.25C386.894 258.316 387.935 255.206 388.966 252.332L396.942 230.081C396.113 228.646 394.544 228.016 392.955 227.377C391.625 226.843 390.282 226.303 389.344 225.281C386.697 222.395 388.694 217.807 390.768 214.485L427.125 156.26C428.61 153.883 431.868 153.137 434.599 153.771C437.329 154.404 439.662 156.123 441.908 157.801L468.424 177.606C473.167 181.149 478.404 185.675 478.131 191.59C477.98 194.863 476.107 197.772 474.295 200.502L453.281 232.168C450.564 236.262 450.234 241.24 449.903 246.241C449.753 248.503 449.603 250.769 449.232 252.961C447.419 263.652 440.299 272.506 433.478 280.989L433.094 281.466C432.95 281.645 432.807 281.824 432.663 282.003C425.603 290.796 418.539 300.615 418.142 311.884C417.669 325.316 411.288 338.435 401.013 347.099L409.954 325.407C412.081 320.249 414.05 313.831 410.491 309.533C408.881 307.589 406.448 306.56 404.112 305.602L390.225 299.905C389.268 299.512 388.281 299.113 387.246 299.106C384.02 299.087 382.101 302.585 380.793 305.534C376.267 315.736 370.488 325.381 363.626 334.183ZM409.288 304.725C411.669 305.606 415.021 306.142 416.149 303.867C421.61 292.859 427.22 281.64 435.913 272.954C440.923 267.948 443.994 261.268 445.732 254.402C447.469 247.536 447.961 240.425 448.446 233.359C446.336 234.127 446.153 236.973 446.162 239.218C446.182 244.167 445.317 249.117 443.62 253.766C443.265 254.739 442.788 255.79 441.837 256.201C440.886 256.611 439.485 255.787 439.805 254.802C442.258 247.24 443.172 239.183 442.475 231.264C442.26 228.809 441.802 226.183 440.057 224.443C440.246 228.319 440.435 232.213 440.042 236.075C439.363 242.755 436.967 249.125 434.593 255.407C434.285 256.222 433.912 257.111 433.129 257.494C432.346 257.878 431.13 257.27 431.335 256.423L434.891 241.725C436.846 233.644 438.768 224.951 435.742 217.207C434.218 217.105 433.859 219.284 433.995 220.806C434.927 231.228 432.046 241.572 429.193 251.638C428.86 252.814 427.682 254.283 426.766 253.475C426.371 253.126 426.353 252.526 426.385 252C426.565 249.039 427.376 246.174 428.187 243.311L428.188 243.308C428.439 242.42 428.69 241.533 428.923 240.643C431.066 232.433 431.613 223.81 430.523 215.395C428.645 217.802 427.848 220.855 427.097 223.814L422.634 241.38C420.616 249.321 418.039 258.051 411.044 262.316C410.487 262.656 409.84 262.972 409.205 262.822C408.416 262.634 407.969 261.819 407.64 261.078C403.176 251.022 402.618 239.291 406.108 228.857C406.32 228.224 405.676 227.562 405.01 227.51C404.345 227.457 403.722 227.82 403.176 228.205C397.449 232.246 395.255 239.567 393.433 246.335L391.011 255.336C390.657 256.65 390.301 257.977 390.227 259.336C390.115 261.402 390.654 263.424 391.191 265.434L391.191 265.435C391.315 265.901 391.44 266.366 391.556 266.831C393.886 276.182 392.833 286.337 388.635 295.011C388.016 296.29 389.65 297.453 390.982 297.947L409.288 304.725ZM418.336 218.829C417.381 218.171 416.358 217.42 416.062 216.299C415.61 214.579 417.247 212.852 419.011 212.62C420.774 212.389 422.499 213.24 423.96 214.254C426.018 215.681 428.623 213.504 430.164 211.529C428.085 210.286 426.102 208.355 426.02 205.934C425.938 203.513 428.882 201.207 430.841 202.632C431.601 203.185 432.521 203.523 433.43 203.858C434.793 204.359 436.133 204.852 436.88 206.045C437.73 207.402 437.428 209.237 436.563 210.585C435.697 211.932 434.365 212.9 433.065 213.834C434.932 214.019 436.749 214.685 438.293 215.749L439.977 210.844C440.107 210.464 440.249 210.066 440.548 209.797C441.125 209.28 442.023 209.44 442.762 209.674C444.7 210.289 446.601 211.25 447.88 212.83C449.159 214.411 449.693 216.707 448.799 218.534C447.905 220.36 445.382 221.334 443.672 220.233C443.318 220.004 442.962 219.699 442.605 219.394L442.605 219.394C441.652 218.577 440.699 217.761 439.779 218.414C442.588 220.601 444.517 223.887 445.059 227.405C453.9 213.937 462.647 200.406 471.299 186.815C472.124 185.518 472.79 183.473 471.446 182.727C465.7 179.539 460.622 175.271 455.556 171.012C449.161 165.637 442.786 160.278 435.113 157.131C434.626 156.931 434.093 156.738 433.584 156.872C433.051 157.013 432.675 157.477 432.34 157.915C418.051 176.565 405.227 196.337 394.025 216.989C392.462 219.87 394.554 223.304 396.555 225.9C397.555 227.197 399.485 228.568 400.575 227.346C401.949 225.805 404.202 224.925 406.148 225.613C408.094 226.3 409.305 228.831 408.247 230.603C407.481 231.885 408.98 233.31 410.289 234.027C412.905 235.46 415.588 236.77 418.327 237.951C418.708 238.115 419.151 238.276 419.522 238.09C419.875 237.913 420.018 237.493 420.129 237.114L423.163 226.673C423.662 224.956 423.996 222.727 422.523 221.713L418.336 218.829ZM472.616 189.561C472.214 189.423 471.846 189.826 471.609 190.181L448.889 224.19C448.278 225.105 447.652 226.056 447.474 227.142C447.295 228.228 447.694 229.49 448.682 229.974C450.319 230.774 452.03 229.092 453.08 227.604L474.19 197.685C475.757 195.464 474.431 192.427 473.089 190.062C472.973 189.858 472.839 189.638 472.616 189.561ZM408.649 234.976C408.249 234.685 407.651 234.858 407.316 235.223C406.981 235.587 406.844 236.086 406.718 236.564C406.408 237.742 406.096 238.931 406.05 240.148C406.004 241.365 406.225 242.575 406.445 243.772L408.621 255.599C408.712 256.095 408.819 256.622 409.17 256.983C409.522 257.344 410.207 257.422 410.491 257.006C413.712 252.297 416.977 247.495 418.662 242.044C418.871 241.367 418.932 240.414 418.268 240.164C414.848 238.877 411.603 237.127 408.649 234.976ZM433.774 205.796C432.684 204.757 431.242 204.094 429.744 203.941C428.378 203.802 427.59 205.721 428.213 206.944C428.837 208.167 430.214 208.773 431.489 209.284C432.388 209.644 433.479 209.984 434.264 209.415C435.391 208.597 434.783 206.757 433.774 205.796ZM424.805 219.501C425.249 219.184 425.307 218.538 425.182 218.006C424.714 216.004 422.519 214.982 420.548 214.395C419.786 214.169 418.837 214.011 418.3 214.597C417.851 215.087 417.947 215.897 418.334 216.437C418.721 216.977 419.326 217.309 419.911 217.624L422.955 219.264C423.533 219.575 424.269 219.881 424.805 219.501ZM442.124 212.286C441.48 213.148 441.545 214.403 442.083 215.336C442.621 216.269 443.552 216.918 444.534 217.359C444.871 217.51 445.241 217.643 445.603 217.571C445.914 217.509 446.181 217.299 446.371 217.045C447.075 216.105 446.733 214.69 445.928 213.836C445.122 212.983 443.976 212.555 442.872 212.155C442.682 212.086 442.46 212.02 442.287 212.124C442.221 212.164 442.17 212.224 442.124 212.286ZM136.852 290.505C137.274 287.391 137.864 283.963 140.311 281.99C142.263 280.418 144.941 280.167 147.447 280.118C155.656 279.961 163.891 281.294 171.63 284.033C174.079 284.9 176.641 286.041 177.98 288.267C179.429 290.676 179.076 293.715 178.675 296.498L172.459 339.683C176.745 327.177 179.823 314.256 181.634 301.16C182.479 295.051 182.774 288.04 178.51 283.584C171.853 276.627 172.035 266.719 172.22 256.643C172.379 247.948 172.54 239.129 168.311 231.976C166.93 229.643 170.007 227.233 172.567 226.337C183.846 222.388 195.87 220.576 207.812 221.026C210.002 238.321 210.594 255.819 209.579 273.223C209.352 277.126 214.887 278.133 218.773 277.702L353.586 262.753C354.261 262.679 354.991 262.578 355.469 262.097C356.027 261.535 356.055 260.652 356.047 259.859C355.729 228.273 354.82 196.693 353.32 165.14C353.262 163.909 353.105 162.495 352.086 161.801C351.321 161.281 350.316 161.35 349.396 161.44L253.171 170.767C259.493 140.954 265.85 110.58 262.967 80.2403C241.932 94.2652 214.789 94.16 189.55 92.6749C188.502 92.6131 187.45 92.5503 186.397 92.4874C162.109 91.0358 136.781 89.5221 114.946 100.029C126.379 130.341 137.943 163.429 128.439 194.401C127.598 197.141 126.598 199.832 125.598 202.523C124.056 206.671 122.516 210.816 121.563 215.131C119.992 222.245 120.228 230.21 124.438 236.156C130.535 244.765 135.379 254.555 136.484 265.046C137.533 275.002 135.19 284.876 132.85 294.739C130.404 305.044 127.962 315.337 129.394 325.698C129.636 327.451 130.074 329.337 131.447 330.454L136.852 290.505ZM146.39 165.397C148.94 165.487 149.953 168.688 150.279 171.218L152.86 191.253C147.821 188.64 140.731 193.075 140.875 198.75C136.629 190.553 135.983 181.159 135.345 171.86C135.206 169.837 135.067 167.818 134.892 165.818C133.017 144.423 126.569 123.73 120.161 103.232C119.247 100.309 123.194 98.4133 126.224 97.9691C146.108 95.0539 166.232 95.4564 186.365 95.8591C195.491 96.0416 204.618 96.2242 213.727 96.0978C229.911 95.8733 247.035 94.3416 260.163 84.8742C263.114 104.545 259.103 124.391 255.144 143.988C254.608 146.638 254.073 149.285 253.557 151.925C249.222 174.087 246.272 197.709 254.565 218.713C254.915 219.598 253.723 220.265 252.792 220.459C245.971 221.882 238.919 222.188 232 221.363C229.032 221.008 226.096 220.449 223.159 219.889C220.947 219.467 218.735 219.045 216.509 218.711C199.751 216.197 182.26 218.807 166.966 226.104C166.353 226.396 165.624 226.259 164.982 226.037C161.884 224.965 159.675 222.103 158.572 219.016C157.47 215.93 157.312 212.598 157.165 209.324L156.548 195.59C156.526 195.097 156.655 194.427 157.149 194.411C183.94 193.574 210.701 191.768 237.362 188.998C236.234 182.69 236.122 176.201 237.032 169.858C237.606 165.854 233.84 162.203 229.83 161.667C225.821 161.132 221.856 162.948 218.526 165.246C217.281 166.105 216.085 167.039 214.89 167.972C212.89 169.533 210.892 171.093 208.668 172.302C207.212 173.093 205.461 173.731 203.932 173.092C202.061 172.31 201.433 170.084 200.873 168.097C200.838 167.972 200.803 167.848 200.768 167.726C200.039 165.167 198.834 162.62 196.714 161.01C194.595 159.401 191.398 159 189.306 160.645C187.517 162.051 186.952 164.487 186.652 166.742C186.626 166.943 186.6 167.145 186.574 167.347C186.308 169.421 186.034 171.564 184.796 173.227C183.438 175.052 180.407 175.834 178.917 174.115C175.97 170.714 170.8 170.001 166.462 171.194C162.124 172.388 158.411 175.144 154.812 177.844C152.641 174.446 152.461 169.87 154.359 166.313L154.391 166.253C154.748 165.585 155.158 164.818 154.842 164.138C154.647 163.717 154.216 163.458 153.789 163.275C151.236 162.181 147.975 163.116 146.39 165.397ZM223.101 222.826C224.529 223.111 226.283 223.747 226.371 225.2C227.213 239.055 238.224 251.506 251.762 254.572C265.299 257.639 280.303 251.438 288.196 240.02C296.09 228.602 296.708 212.741 290.235 200.462C283.294 187.293 266.424 180.3 252.202 184.695C251.542 181.785 251.616 178.711 252.416 175.837C252.565 175.303 252.758 174.745 253.189 174.396C253.61 174.056 254.179 173.978 254.716 173.914L294.781 169.088C298.303 168.664 301.834 168.239 305.382 168.21C320.638 168.084 335.882 166.563 350.862 163.671C353.19 194.927 354.285 226.274 354.145 257.616C354.138 259.103 353.685 261.078 352.199 261.122C326.984 261.856 301.968 265.173 276.942 268.491C260.129 270.72 243.31 272.95 226.424 274.398C222.661 274.721 218.871 275.004 215.111 274.646C214.429 274.581 213.66 274.442 213.29 273.866C213.066 273.519 213.041 273.084 213.023 272.672L210.775 222.541C210.745 221.893 210.785 221.113 211.346 220.787C211.717 220.572 212.183 220.649 212.604 220.733L223.101 222.826ZM154.117 211.22C153.718 213.824 153.27 216.753 154.976 218.723C161.338 226.071 167.948 233.922 169.639 243.493C170.429 247.963 170.09 252.563 169.752 257.144C169.326 262.915 168.903 268.656 170.741 274.07C170.788 274.211 170.838 274.353 170.888 274.494C171.225 275.46 171.57 276.443 171.46 277.451C171.335 278.607 170.331 279.769 169.186 279.572L155.885 277.278C151.48 276.518 146.826 275.779 142.642 277.351C141.833 277.655 140.902 277.122 140.469 276.374C140.035 275.627 139.978 274.727 139.941 273.863C139.895 272.821 139.861 271.771 139.827 270.719C139.612 264.097 139.393 257.351 136.328 251.55L126.55 233.039C125.106 230.306 123.629 227.451 123.529 224.363C123.463 222.3 124.019 220.274 124.572 218.285L129.45 200.713C130.477 197.013 131.563 193.196 133.996 190.225C139.904 200.25 140.487 213.219 135.502 223.733C135.041 224.705 136.45 225.707 137.454 225.319C138.458 224.932 138.968 223.831 139.322 222.815C140.74 218.743 141.238 214.45 141.736 210.151C142.138 206.673 142.542 203.191 143.434 199.818C143.98 197.752 144.768 195.643 146.364 194.221C147.959 192.799 150.561 192.312 152.233 193.644C153.512 194.662 153.928 196.404 154.172 198.021C154.814 202.288 154.811 206.651 154.163 210.918C154.148 211.018 154.132 211.119 154.117 211.22ZM177.067 176.529C179.028 178.029 180.948 179.499 183.3 179.227C186.29 178.881 188.154 175.803 189.022 172.921C189.212 172.29 189.381 171.645 189.551 170.998C190.156 168.689 190.765 166.361 192.35 164.624C192.81 164.119 193.473 163.649 194.127 163.847C194.657 164.007 194.965 164.544 195.211 165.04C195.56 165.742 195.89 166.457 196.22 167.172C197.151 169.187 198.082 171.204 199.433 172.955C201.264 175.328 204.112 177.194 207.091 176.867C209.754 176.575 211.835 174.689 213.864 172.851C214.28 172.474 214.693 172.099 215.11 171.74C219.995 167.527 226.359 165.062 232.808 164.884C231.938 167.058 232.518 169.43 233.087 171.757C233.224 172.317 233.361 172.875 233.476 173.426C234.386 177.779 233.926 182.408 232.177 186.496L189.102 189.812C179.046 190.586 168.965 191.361 158.886 191.007C158.249 190.984 157.596 190.954 157.01 190.703C155.904 190.23 155.247 189.049 155.009 187.869C154.475 185.225 155.694 182.47 157.541 180.503C159.388 178.536 161.8 177.211 164.169 175.92C166.634 174.575 169.371 173.186 172.119 173.76C173.948 174.142 175.52 175.345 177.067 176.529ZM258.634 239.275C252.109 239.141 246.455 233.817 244.517 227.584C244.122 226.312 244.944 224.916 246.079 224.217C247.214 223.518 248.587 223.353 249.911 223.204L259.473 222.13C256.565 216.479 254.494 210.397 253.348 204.146C253.244 203.579 253.149 202.983 253.329 202.435C253.643 201.473 254.68 200.966 255.64 200.644C263.408 198.033 272.736 201.203 277.304 208.007C281.873 214.811 281.274 224.646 275.912 230.845C273.591 233.528 270.549 235.509 267.345 237.033C264.612 238.333 261.659 239.338 258.634 239.275ZM289.6 205.683C290.761 209.517 291.097 213.55 291.256 217.553C288.649 217.158 286.016 216.934 283.379 216.883C282.863 210.15 278.382 204.067 272.49 200.767C266.599 197.467 259.488 196.753 252.83 197.883C252.774 196.934 252.601 195.944 252.428 194.954C251.971 192.34 251.514 189.726 253.204 187.871C254.225 186.751 255.78 186.302 257.27 186.025C264.058 184.76 271.295 186.085 277.194 189.672C283.093 193.259 287.6 199.075 289.6 205.683ZM241.741 226.905C241.73 227.029 241.72 227.151 241.714 227.268C241.67 228.199 242.104 229.052 242.533 229.897C242.648 230.123 242.763 230.349 242.868 230.575C243.365 231.647 243.606 233.058 242.775 233.897C240.763 235.928 238.986 238.19 237.489 240.624C237.118 241.226 236.207 241.275 235.598 240.916C234.989 240.557 234.611 239.917 234.26 239.304C232.034 235.424 229.753 231.365 229.475 226.9C229.441 226.345 229.502 225.673 229.994 225.414C230.211 225.3 230.467 225.297 230.712 225.296L240.666 225.266C240.904 225.265 241.154 225.267 241.361 225.385C241.849 225.662 241.793 226.307 241.741 226.905Z" fill="#00160A"/>
</svg>
