<svg width="60" height="60" viewBox="0 0 60 60" fill="none" xmlns="http://www.w3.org/2000/svg">
<path d="M29.884 10.1732C18.79 10.1732 9.76477 19.199 9.76477 30.2923C9.76477 41.3857 18.7906 50.4115 29.884 50.4115C40.9779 50.4115 50.0037 41.3857 50.0037 30.2923C50.0037 19.199 40.9779 10.1732 29.884 10.1732ZM29.884 48.2549C19.9792 48.2549 11.9208 40.1971 11.9208 30.2923C11.9208 20.3876 19.9792 12.3292 29.884 12.3292C39.7887 12.3292 47.8465 20.3876 47.8465 30.2923C47.8465 40.1971 39.7887 48.2549 29.884 48.2549Z" fill="#EE58B6"/>
<path d="M34.9678 27.0238L30.6283 31.3633V15.928C30.6283 15.3325 30.1452 14.85 29.5497 14.85C28.9542 14.85 28.4716 15.3325 28.4716 15.928V33.9659C28.4716 34.0371 28.4788 34.1082 28.4932 34.1782C28.4992 34.2087 28.5105 34.2368 28.5195 34.2667C28.5302 34.3044 28.5392 34.3426 28.5548 34.3797C28.5697 34.4156 28.59 34.4479 28.6086 34.4819C28.6235 34.51 28.6361 34.5387 28.654 34.5656C28.7329 34.684 28.8352 34.7857 28.9536 34.8652C28.9757 34.8801 28.9996 34.8897 29.0223 34.9023C29.0606 34.9238 29.0976 34.9465 29.1389 34.9638C29.1712 34.977 29.2053 34.9848 29.2382 34.9949C29.2722 35.0051 29.3045 35.0182 29.3398 35.0248C29.4091 35.0386 29.4797 35.0463 29.5503 35.0463C29.6208 35.0463 29.6914 35.0392 29.7607 35.0248C29.796 35.0176 29.8289 35.0051 29.863 34.9943C29.8958 34.9842 29.9293 34.977 29.9616 34.9638C30.0035 34.9465 30.0417 34.9232 30.0806 34.9011C30.1027 34.8885 30.1254 34.8795 30.147 34.8652C30.2073 34.8251 30.2635 34.7797 30.3138 34.7283L36.493 28.549C36.9139 28.1281 36.9139 27.4453 36.493 27.0244C36.0715 26.6023 35.3893 26.6023 34.9678 27.0238Z" fill="#EE58B6"/>
<path d="M29.8846 5.40741C16.1629 5.40741 4.99957 16.5707 4.99957 30.293C4.99957 44.0153 16.1629 55.178 29.8846 55.178C43.6063 55.178 54.7702 44.0147 54.7702 30.293C54.7702 16.5713 43.6063 5.40741 29.8846 5.40741ZM29.8846 53.0208C17.3521 53.0208 7.15558 42.8249 7.15558 30.2924C7.15558 17.7599 17.3515 7.56342 29.8846 7.56342C42.4177 7.56342 52.613 17.7599 52.613 30.2924C52.613 42.8249 42.4171 53.0208 29.8846 53.0208Z" fill="#EE58B6"/>
</svg>
