<svg width="39" height="49" viewBox="0 0 39 49" fill="none" xmlns="http://www.w3.org/2000/svg">
<path d="M34.132 5.74479V21.6304C35.3087 21.8265 36.2893 22.2187 36.8777 22.8071C38.6427 24.9644 38.0544 30.848 38.0544 33.0053C38.0544 53.7938 0.987976 53.7938 0.987976 33.0053C0.987976 28.2984 0.987976 23.3955 0.987976 18.4925C0.987976 14.9624 7.26377 14.1779 9.81331 16.5313C11.5784 14.7662 15.5007 14.7662 17.4619 16.3352C19.0309 14.7662 22.1688 14.5701 24.3261 15.5507V5.74479C24.3261 -1.11936 34.132 -1.11936 34.132 5.74479ZM32.1708 21.2382V5.74479C32.1708 1.6263 26.2873 1.6263 26.2873 5.74479V21.2382C28.2484 21.2382 30.4057 21.2382 32.1708 21.2382ZM24.3261 21.2382V18.2964C24.3261 16.5313 18.6386 16.5313 18.4425 18.2964C18.6386 23.7877 18.6386 27.7101 18.6386 31.6324C18.8348 33.2014 24.3261 33.7897 24.3261 31.0441C19.6192 29.8674 20.5998 25.7489 20.5998 21.4343C21.3843 21.4343 22.7571 21.4343 24.3261 21.2382ZM26.2873 31.2402C26.2873 35.1626 20.2076 35.7509 17.658 33.7897C15.893 35.5548 11.5784 35.5548 9.81331 33.7897C8.24436 35.1626 5.10646 35.5548 3.14528 34.5742C4.71423 51.2443 36.0932 50.6559 36.0932 33.0053C36.0932 31.6324 36.4854 25.3566 35.3087 24.1799C34.132 22.8071 24.3261 23.3955 22.561 23.3955C22.561 25.945 21.9727 29.0829 25.3067 29.279H30.4057C32.5631 29.279 32.5631 33.5936 30.6019 33.5936C27.0717 33.7897 25.3067 35.7509 25.1105 39.2811C25.1105 40.4578 23.1494 40.4578 23.3455 39.2811C23.3455 35.1626 25.5028 32.4169 29.4252 31.6324V31.2402H26.2873ZM2.94916 32.0247C3.3414 33.5936 8.83272 33.5936 8.83272 31.8285V18.4925C8.83272 16.9235 2.94916 16.7274 2.94916 18.4925C2.94916 23.0032 2.94916 27.5139 2.94916 32.0247ZM16.6775 31.8285C16.4813 28.8868 16.4813 22.611 16.4813 18.4925C16.2852 16.7274 10.7939 16.7274 10.7939 18.4925V31.8285C10.7939 33.5936 16.4813 33.5936 16.6775 31.8285Z" fill="#EE58B6"/>
</svg>
