<svg width="41" height="49" viewBox="0 0 41 49" fill="none" xmlns="http://www.w3.org/2000/svg">
<path d="M40.4422 33.9722C40.4422 53.0722 6.06233 53.7998 6.06233 33.0627L1.15093 13.0533C-0.304306 6.86854 8.42709 4.68569 9.88232 10.8704L12.0652 19.238L10.428 8.14187C9.70041 1.59332 18.6137 0.319993 19.5232 6.86854L20.7966 17.419V5.77711C20.7966 -1.31714 29.8918 -1.31714 29.8918 5.77711V18.6923L31.5289 7.41425C32.4384 1.22951 41.3517 2.50284 40.4422 8.68758L38.2593 23.6037C41.3517 25.2408 40.4422 31.0618 40.4422 33.9722ZM7.88137 32.517C8.42709 52.1626 38.6232 50.1617 38.6232 33.9722C38.6232 22.8761 39.8965 25.0589 26.0718 25.0589C26.0718 31.6075 26.2537 29.7884 33.3479 30.5161C34.8032 30.5161 34.2575 32.6989 34.2575 33.4265C34.2575 35.6094 28.8003 33.0627 28.6184 39.7932C28.4365 40.8846 26.7994 40.8846 26.7994 39.6113C26.9813 35.9732 28.8003 33.4265 32.4384 32.6989V32.3351C23.5251 32.3351 24.2527 31.0618 24.2527 23.2399C28.4365 23.2399 32.4384 23.058 36.4403 23.2399L38.6232 8.50567C39.3508 4.68569 33.8937 3.77617 33.3479 7.77806L31.1651 22.3304C30.0737 22.3304 29.1641 22.3304 28.0727 22.3304V5.77711C28.0727 1.22951 22.6156 1.22951 22.6156 5.77711V22.1485C21.7061 22.1485 20.6147 22.1485 19.7051 22.3304L17.7042 7.23235C17.1585 3.04855 11.7014 3.77617 12.2471 7.95996L14.4299 23.4218C13.3385 23.7856 12.429 23.9675 11.3376 24.1494L8.06328 11.2342C7.15376 7.59615 1.87854 8.86948 2.96997 12.6895L7.88137 32.517Z" fill="#EE58B6"/>
</svg>
