<svg width="61" height="60" viewBox="0 0 61 60" fill="none" xmlns="http://www.w3.org/2000/svg">
<path d="M48.5307 4.42322H17.7881C15.7277 4.42322 14.0512 6.09972 14.0512 8.16006V13.4502H10.315C9.81934 13.4502 9.41816 13.8514 9.41816 14.3471C9.41816 14.8427 9.81934 15.2439 10.315 15.2439H14.0512V21.4459H10.315C9.81934 21.4459 9.41816 21.8471 9.41816 22.3427C9.41816 22.8384 9.81934 23.2396 10.315 23.2396H14.0512V29.4416H10.315C9.81934 29.4416 9.41816 29.8427 9.41816 30.3384C9.41816 30.8335 9.81934 31.2352 10.315 31.2352H14.0512V37.4366H10.315C9.81934 37.4366 9.41816 37.8384 9.41816 38.3335C9.41816 38.8285 9.81934 39.2303 10.315 39.2303H14.0512V44.8338H10.315C9.81934 44.8338 9.41816 45.2356 9.41816 45.7306C9.41816 46.2257 9.81934 46.6275 10.315 46.6275H14.0512V52.8234C14.0512 54.8838 15.7277 56.5603 17.7881 56.5603H42.1177C42.1194 56.5603 42.1212 56.5609 42.1236 56.5609C42.126 56.5609 42.1272 56.5603 42.1296 56.5603H48.5313C50.5916 56.5603 52.2681 54.8838 52.2681 52.8234V8.16006C52.2675 6.09972 50.591 4.42322 48.5307 4.42322ZM15.8449 52.8234V46.6275H19.4401C19.9357 46.6275 20.3369 46.2257 20.3369 45.7306C20.3369 45.2356 19.9357 44.8338 19.4401 44.8338H15.8449V39.2303H19.4401C19.9357 39.2303 20.3369 38.8285 20.3369 38.3335C20.3369 37.8384 19.9357 37.4366 19.4401 37.4366H15.8449V31.2346H19.4401C19.9357 31.2346 20.3369 30.8329 20.3369 30.3378C20.3369 29.8421 19.9357 29.441 19.4401 29.441H15.8449V23.2396H19.4401C19.9357 23.2396 20.3369 22.8384 20.3369 22.3427C20.3369 21.8471 19.9357 21.4459 19.4401 21.4459H15.8449V15.2439H19.4401C19.9357 15.2439 20.3369 14.8427 20.3369 14.3471C20.3369 13.8514 19.9357 13.4502 19.4401 13.4502H15.8449V8.16006C15.8449 7.08864 16.7167 6.2169 17.7881 6.2169H41.2262V54.7666H17.7881C16.7167 54.7666 15.8449 53.8949 15.8449 52.8234ZM50.4738 52.8234C50.4738 53.8949 49.6021 54.7666 48.5307 54.7666H43.0199V6.2169H48.5307C49.6021 6.2169 50.4738 7.08864 50.4738 8.16006V52.8234Z" fill="#EE58B6"/>
</svg>
