<svg width="36" height="49" viewBox="0 0 36 49" fill="none" xmlns="http://www.w3.org/2000/svg">
<path d="M35.7485 9.25712L33.3559 23.6126C36.4846 25.269 35.5644 31.1584 35.5644 34.1032C35.5644 53.4279 0.779968 53.4279 0.779968 34.1032C0.779968 29.502 0.779968 24.9009 0.779968 20.4838C0.779968 16.803 6.85345 16.4349 9.06198 18.4594C10.5343 16.987 13.6631 16.987 15.5035 17.9072L14.7674 5.02409C14.3993 -0.497253 23.6015 -1.04939 23.9696 4.47195L24.7058 19.9317L26.7303 7.78476C27.6505 1.89533 36.6687 2.63151 35.7485 9.25712ZM21.0249 24.9009C21.0249 32.0787 22.4972 29.8701 28.3867 30.4223C28.9388 30.4223 29.3069 30.7903 29.3069 31.3425V33.551C29.3069 35.2074 23.7856 33.367 23.4175 39.8085C23.4175 41.0969 21.577 40.9128 21.7611 39.8085C21.7611 35.9436 23.7856 33.367 27.4665 32.6308V32.2627C19.0004 32.6308 19.1844 31.3425 19.1844 23.0605C20.4728 23.0605 21.7611 23.0605 23.0494 23.0605C23.0494 17.171 22.3132 10.5454 22.1292 4.656C21.9451 1.52724 16.4238 1.89533 16.6078 5.02409L17.344 22.6924V32.8148C17.344 36.3117 11.0865 36.6798 9.06198 34.6553C7.58962 36.1276 4.46086 36.1276 2.80446 35.3915C4.27682 51.0353 33.724 50.4831 33.724 34.1032C33.908 23.2445 33.724 24.9009 21.0249 24.9009ZM2.62042 32.9989C2.98851 34.4712 8.14176 34.4712 8.14176 32.8148V20.4838C8.14176 18.6434 2.62042 18.6434 2.62042 20.4838C2.62042 24.5328 2.62042 28.7659 2.62042 32.9989ZM26.1781 23.0605C28.0186 23.0605 29.859 23.0605 31.6995 23.0605L33.908 8.88903C34.4602 4.84004 29.1229 4.47195 28.3867 7.9688L26.1781 23.0605ZM15.5035 32.8148V20.4838C15.5035 18.6434 9.98221 18.6434 9.98221 20.4838V32.8148C9.98221 34.4712 15.5035 34.4712 15.5035 32.8148Z" fill="#EE58B6"/>
</svg>
