<svg width="51" height="49" viewBox="0 0 51 49" fill="none" xmlns="http://www.w3.org/2000/svg">
<path d="M5.85444 33.0635L0.942922 13.0537C-0.512342 6.8688 8.21924 4.6859 9.67451 10.8708L11.8574 19.2385L10.2202 8.14215C9.4926 1.59347 18.4061 0.320112 19.3156 6.8688L20.589 17.4195V5.77735C20.589 -1.31706 29.6844 -1.31706 29.6844 5.77735V18.6928L31.3216 7.41452C32.2311 1.22965 41.1446 2.50301 40.235 8.68788C39.3255 15.7823 38.2341 22.6948 37.1426 29.6073C42.7818 24.1501 45.5104 23.7862 50.24 29.7892C47.3295 32.5178 42.4179 36.156 39.5074 38.7027C34.5959 52.5277 5.85444 52.5277 5.85444 33.0635ZM38.416 8.50597C39.1436 4.6859 33.6864 3.77636 33.1406 7.77834L30.9577 22.331C29.8663 22.331 28.9568 22.331 27.8653 22.331V5.77735C27.8653 1.22965 22.4081 1.22965 22.4081 5.77735V22.1491C21.4985 22.1491 20.4071 22.1491 19.4975 22.331L17.4965 7.23261C16.9508 3.04873 11.4936 3.77636 12.0393 7.96025L14.2222 23.4224C13.1308 23.7862 12.2212 23.9681 11.1298 24.1501L7.85543 11.2346C6.94589 7.59643 1.67055 8.86979 2.762 12.6899L7.67352 32.5178C8.21924 51.8001 34.7778 49.6172 38.0522 37.0655C38.0522 36.8836 46.9656 30.3349 47.6933 29.6073C43.1456 23.6043 39.3255 30.6987 34.414 34.3369C31.1396 33.7912 28.5929 36.156 28.411 39.6122C28.411 40.8856 26.5919 40.8856 26.5919 39.6122C26.7739 34.7007 29.8663 32.6997 33.8683 32.3359C34.0502 32.3359 34.414 31.7902 35.1416 31.2445C36.2331 23.7862 37.3245 16.1461 38.416 8.50597Z" fill="#EE58B6"/>
</svg>
