<svg width="36" height="49" viewBox="0 0 36 49" fill="none" xmlns="http://www.w3.org/2000/svg">
<path d="M35.735 33.9724C35.735 53.0723 1.53705 53.7999 1.53705 33.0628C0.627531 29.4248 -0.463893 27.2419 1.90086 24.6953C3.538 23.0581 4.99323 21.9667 7.72179 22.3305C7.17608 17.7829 6.44846 12.8715 5.90275 8.14199C4.99323 1.59344 13.9065 0.320115 14.816 6.86866L16.2713 17.4191V5.77724C16.2713 -1.31702 25.1846 -1.31702 25.1846 5.77724V18.6924L27.0036 7.41437C27.9131 1.22964 36.8264 2.50296 35.9169 8.6877L33.5522 23.6038C36.8264 25.241 35.735 31.0619 35.735 33.9724ZM7.17608 23.9676C5.53894 23.6038 1.90086 26.8781 2.26467 28.3333L15.1799 30.5162C19.1817 31.2438 20.0913 25.9686 16.0894 25.241L7.17608 23.9676ZM2.81038 30.3343L3.35609 32.5171C3.9018 52.1628 33.916 50.1618 33.916 33.9724C33.916 22.8762 35.1893 25.0591 21.5465 25.0591C21.5465 31.6076 21.7284 29.7886 28.8227 30.5162C30.096 30.5162 29.7322 32.699 29.7322 33.4266C29.7322 35.6095 24.2751 33.0628 23.9112 39.7933C23.9112 40.8847 22.0922 40.8847 22.0922 39.6114C22.2741 35.9733 24.0931 33.4266 27.9131 32.699V32.3352C22.6379 32.3352 20.637 31.7895 20.0913 29.7886C19.3636 31.6076 17.5446 32.8809 14.9979 32.3352L2.81038 30.3343ZM19.7275 25.4229C19.7275 24.6953 19.7275 23.9676 19.7275 23.24C23.7293 23.24 27.9131 23.0581 31.915 23.24L34.0979 8.5058C34.6436 4.68581 29.3684 3.77629 28.8227 7.77818L26.6398 22.3305C25.5484 22.3305 24.457 22.3305 23.3655 22.3305V5.77724C23.3655 1.22964 18.0903 1.22964 18.0903 5.77724V22.1486C16.9989 22.1486 16.0894 22.1486 14.9979 22.3305L12.997 7.23247C12.4513 3.04868 7.17608 3.77629 7.72179 7.96008C8.2675 12.6896 8.99512 17.601 9.72273 22.5124C14.9979 23.24 19.1817 23.0581 19.7275 25.4229Z" fill="#EE58B6"/>
</svg>
